<?xml version="1.0" encoding="UTF-8"?>
<svg id="Layer_2" data-name="Layer 2" xmlns="http://www.w3.org/2000/svg" viewBox="0 0 431.3 165.75">
  <defs>
    <style>
      .cls-1 {
        fill: #3a88f7;
      }
    </style>
  </defs>
  <g id="Layer_1-2" data-name="Layer 1">
    <path class="cls-1" d="M225.16,102.3c.09,6.08-4.5,10.58-10.72,10.53-5.74-.05-10.37-4.66-10.26-10.22,.12-5.9,4.34-10.06,10.33-10.16,5.75-.1,10.56,4.36,10.64,9.86Z"/>
    <path class="cls-1" d="M19.23,37.74v36.31H0V3.36c5.59,0,10.99-.37,16.28,.19,2.01,.21,4.25,2.23,5.6,4.02,8.35,11.02,16.49,22.21,25.91,34.99V3.77h19.27V74.33c-5.5,0-11.3,.32-17.02-.19-1.75-.16-3.62-2.34-4.87-4.01-8.18-10.88-16.21-21.88-24.28-32.83-.55,.15-1.1,.3-1.65,.45Z"/>
    <path class="cls-1" d="M273.32,74.11h-19.48c0-7.31,.01-14.39,0-21.47,0-2.02,.54-4.38-.33-5.96-1.08-1.97-3.73-4.83-5.04-4.52-2.06,.49-4.94,3.21-5.06,5.14-.54,8.67-.24,17.4-.24,26.57h-19.68V0h19.67V26.86c6.16-.51,11.95-1.84,17.52-1.23,7.84,.87,12.19,5.7,12.53,13.53,.49,11.38,.12,22.8,.12,34.95Z"/>
    <path class="cls-1" d="M380.63,24.84c7.37,1.18,13.88,2.37,20.44,3.18,1.36,.17,2.88-1.06,4.35-1.58,14.5-5.14,25.28,2.01,25.74,17.28,.26,8.72,.07,17.45,.06,26.18,0,1.11-.11,2.21-.21,3.89h-19.93c0-8.19,.04-16.39-.02-24.6-.02-3.68,0-7.57-5.4-7.36-4.93,.19-5.46,3.4-5.36,7.44,.19,8.03,.06,16.07,.06,24.6h-19.74V24.84Z"/>
    <path class="cls-1" d="M300.76,54.83q6.88,7.08,27.44,2.33c0,3.67,.44,7.24-.17,10.63-.35,1.92-2.09,4.6-3.77,5.12-9.88,3.07-19.95,3.61-29.78-.29-11.2-4.45-16.56-16.25-13.46-28.97,2.92-11.98,14.78-19.99,27.69-18.71,13.32,1.32,21.39,10.04,22.19,23.56,.26,4.47-.86,6.63-5.88,6.41-7.58-.33-15.18-.09-24.28-.09Zm-.39-11.08h12.37c-4.32-5.14-7.66-5.88-12.37,0Z"/>
    <path class="cls-1" d="M203.95,26.04h10.96v15.51c-3.41,.2-6.86,.4-10.21,.6-2.18,15.65-1.04,17.53,10.64,16.16,0,4.2,.2,8.33-.13,12.42-.1,1.19-1.49,2.79-2.68,3.3-14.19,6.17-27.92-2.37-28.62-17.76-.2-4.45-.03-8.91-.03-13.76-2.26-.39-4.15-.71-6.53-1.12v-14.82c1.85-.36,3.93-.77,6.46-1.27V14.12c6.75-1.16,13.06-2.25,20.13-3.46v15.38Z"/>
    <path class="cls-1" d="M137.95,73.87V25.96c6.96,1.04,14.21-2.68,21.04,2.81,.32-.19,1.06-.69,1.84-1.1,10.13-5.34,13.03-3.68,13.02,7.44,0,2.63,0,5.27,0,7.8q-16.07,1.6-16.07,17.16c0,4.44,0,8.88,0,13.81h-19.84Z"/>
    <path class="cls-1" d="M338.47,25.59c7.15,1.82,14.51-2.67,20.72,3.28,1.01-.59,2.13-1.34,3.34-1.91,8.92-4.19,11.67-2.53,11.67,6.98,0,2.88,0,5.75,0,8.3-.87,.58-1.21,1.01-1.58,1.03q-14.49,.73-14.49,14.96c0,5.1,0,10.21,0,15.71h-19.66V25.59Z"/>
    <path class="cls-1" d="M90.63,162.82h-20.17v-27.31h-24.31v27.28H25.62V92.57h20.21v24.5h24.15v-24.38h20.64v70.13Z"/>
    <path class="cls-1" d="M398.99,164.51h-20.13c0-8.4,.04-16.59-.02-24.79-.03-3.63,.14-7.63-5.24-7.51-4.81,.1-5.63,3.15-5.52,7.29,.22,8.04,.07,16.1,.07,24.7h-19.69v-48.53c6.74,.84,13.26,1.73,19.79,2.39,1.36,.14,2.85-.41,4.19-.9,15.62-5.66,26.15,1.18,26.51,17.46,.22,9.78,.04,19.58,.04,29.89Z"/>
    <path class="cls-1" d="M230.93,163.37c6.32-10.94,12.1-20.94,18.43-31.89h-15.44v-15.83h45.83c-6.17,10.68-12.09,20.92-18.57,32.13,4.87,0,8.63,.21,12.36-.06,4.07-.29,5.83,1.15,5.52,5.32-.25,3.3-.05,6.63-.05,10.33h-48.07Z"/>
    <path class="cls-1" d="M183.53,116.14c5.46-1.45,10.08-2.67,15.54-4.12v18.51c-.24,.16-.58,.59-.94,.6-14.3,.38-14.65,.73-14.65,14.93,0,5.11,0,10.21,0,15.7h-19.49v-47.49c13.36-1.6,17.57-1.06,19.54,1.87Z"/>
    <path class="cls-1" d="M205.01,163.22v-47.46h19.16v47.46h-19.16Z"/>
    <path class="cls-1" d="M135.84,74.05h-28.77c-.63-2.34-1.98-4.05-4.61-4.1-2.72-.05-4.13,1.68-4.82,4.08h-28.69c.49-11.4,5.09-20.58,14.49-26.93,11.2-7.57,23.17-8.19,35.04-1.74,11.15,6.06,16.6,15.93,17.38,28.68Z"/>
    <path class="cls-1" d="M125.26,110.91c8.84-.02,15.85,1.92,21.74,7.02,6.03,5.23,8.73,11.82,8.59,19.87-.23,12.86-10.99,22.71-21.84,24.32-6.87,1.02-13.65,.96-20.17-1.55-7.95-3.06-16.21-11.16-16.31-23.31-.09-10.49,4.83-17.86,13.81-22.82,4.79-2.65,9.94-3.72,14.2-3.53Zm-9.55,25.54c-.12,5.83,4.73,11.02,10.61,10.99,6.16-.03,10.87-4.82,10.9-10.47,.03-6.08-4.4-10.66-10.41-10.88-6.08-.22-10.98,4.45-11.1,10.37Z"/>
    <path class="cls-1" d="M311.26,113.91c8.84-.02,15.85,1.92,21.74,7.02,6.03,5.23,8.73,11.82,8.59,19.87-.23,12.86-10.99,22.71-21.84,24.32-6.87,1.02-13.65,.96-20.17-1.55-7.95-3.06-16.21-11.16-16.31-23.31-.09-10.49,4.83-17.86,13.81-22.82,4.79-2.65,9.94-3.72,14.2-3.53Zm-9.55,25.54c-.12,5.83,4.73,11.02,10.61,10.99,6.16-.03,10.87-4.82,10.9-10.47,.03-6.08-4.4-10.66-10.41-10.88-6.08-.22-10.98,4.45-11.1,10.37Z"/>
  </g>
</svg>